#!OML:ASF I:\Actors\actors\Patient Classification 2\Patient 1\Session 1\actor1.ASF
:FULLY-SPECIFIED
:DEGREES
1124
root -1.09899 18.0207 6.21095 -2.71428 -3.8717 -4.15857
lowerback 3.30459 0.238517 3.15437
upperback -2.78495 0.565649 1.75459
thorax -4.72265 0.206469 0.00520513
lowerneck -10.4474 -0.795688 0.290209
upperneck 19.8074 -1.36411 0.934567
head 7.83557 -0.543323 0.125551
rclavicle -7.66563e-015 9.83984e-015
rhumerus -60.9651 -11.973 -74.6823
rradius 42.2464
rwrist 20.2946
rhand -2.94281 -32.1836
rfingers 7.12502
rthumb 22.7688 -60.86
lclavicle -7.66563e-015 9.83984e-015
lhumerus -48.831 10.786 80.9667
lradius 36.8048
lwrist -16.9704
lhand -1.09446 -23.8845
lfingers 7.12502
lthumb 24.5417 4.56272
rfemur 0 0 0
rtibia 0
rfoot 0 0
rtoes 0
lfemur 22.9919 -7.89553 -13.6311
ltibia -17.895
lfoot -6.62834 21.9465
ltoes -9.42458
1125
root -1.10112 18.0209 6.20557 -2.77094 -3.91263 -4.17931
lowerback 3.34157 0.244586 3.14671
upperback -2.77109 0.575685 1.77972
thorax -4.72936 0.212176 0.0345762
lowerneck -10.4458 -0.763571 0.319363
upperneck 19.9913 -1.32684 0.929466
head 7.89591 -0.522772 0.122396
rclavicle -6.96989e-015 5.66536e-015
rhumerus -60.4306 -12.4904 -74.5465
rradius 42.3862
rwrist 20.0413
rhand -3.52783 -32.1685
rfingers 7.12502
rthumb 22.2073 -60.9128
lclavicle -6.96989e-015 5.66536e-015
lhumerus -48.5769 10.5135 81.1642
lradius 36.8836
lwrist -16.0671
lhand -1.26323 -23.5165
lfingers 7.12502
lthumb 24.3799 4.9526
rfemur 0 0 0
rtibia 0
rfoot 0 0
rtoes 0
lfemur 23.0506 -7.90402 -13.6081
ltibia -17.8837
lfoot -6.67359 21.9704
ltoes -9.30341
1126
root -1.10379 18.0219 6.2005 -2.79386 -3.92484 -4.1892
lowerback 3.32128 0.249317 3.1162
upperback -2.74509 0.5794 1.80077
thorax -4.691 0.216048 0.0731713
lowerneck -10.4355 -0.749485 0.341751
upperneck 20.0946 -1.30812 0.906156
head 7.92797 -0.513823 0.112702
rclavicle 7.10655e-015 -6.06293e-015
rhumerus -59.8011 -12.9549 -74.5243
rradius 42.5114
rwrist 19.6522
rhand -4.09095 -32.1075
rfingers 7.12502
rthumb 21.6666 -60.9152
lclavicle 7.10655e-015 -6.06293e-015
lhumerus -48.2564 10.6367 81.1687
lradius 36.8634
lwrist -15.6197
lhand -1.45176 -23.2792
lfingers 7.12502
lthumb 24.1991 5.21412
rfemur 0 0 0
rtibia 0
rfoot 0 0
rtoes 0
lfemur 23.0568 -7.92579 -13.594
ltibia -17.8736
lfoot -6.65352 22.0069
ltoes -9.33831
1127
root -1.10611 18.0225 6.19544 -2.80366 -3.95355 -4.21093
lowerback 3.31508 0.261586 3.10643
upperback -2.7363 0.595732 1.82594
thorax -4.67831 0.225132 0.103484
lowerneck -10.4214 -0.765342 0.24779
upperneck 20.1756 -1.33159 0.992255
head 7.95364 -0.523356 0.154514
rclavicle -1.75303e-014 -6.85807e-015
rhumerus -59.1182 -13.4161 -74.5299
rradius 42.5755
rwrist 19.2491
rhand -4.63937 -31.8852
rfingers 7.12502
rthumb 21.1399 -60.7527
lclavicle -1.75303e-014 -6.85807e-015
lhumerus -47.9687 11.0878 81.0125
lradius 36.8666
lwrist -15.5797
lhand -1.54096 -23.2242
lfingers 7.12502
lthumb 24.1136 5.28048
rfemur 0 0 0
rtibia 0
rfoot 0 0
rtoes 0
lfemur 23.0559 -7.98531 -13.5785
ltibia -17.8663
lfoot -6.69795 22.085
ltoes -9.29361
1128
root -1.10684 18.0228 6.19003 -2.80528 -4.00823 -4.25007
lowerback 3.33005 0.281236 3.143
upperback -2.7451 0.626124 1.85324
thorax -4.69548 0.239219 0.109025
lowerneck -10.3961 -0.791631 0.13901
upperneck 20.2694 -1.37637 1.12214
head 7.98224 -0.53991 0.211255
rclavicle -1.17656e-014 1.02374e-014
rhumerus -58.3807 -13.8624 -74.5777
rradius 42.6
rwrist 18.808
rhand -5.17239 -31.6852
rfingers 7.12502
rthumb 20.6278 -60.6091
lclavicle -1.17656e-014 1.02374e-014
lhumerus -47.7074 11.4454 80.9635
lradius 36.9227
lwrist -15.4155
lhand -1.65125 -23.2318
lfingers 7.12502
lthumb 24.0078 5.28682
rfemur 0 0 0
rtibia 0
rfoot 0 0
rtoes 0
lfemur 23.0591 -8.08829 -13.5623
ltibia -17.8566
lfoot -6.83114 22.1989
ltoes -8.98324
